<?xml version="1.0" encoding="UTF-8" standalone="no" ?>
<!DOCTYPE svg PUBLIC "-//W3C//DTD SVG 1.1//EN" "http://www.w3.org/Graphics/SVG/1.1/DTD/svg11.dtd">
<svg xmlns="http://www.w3.org/2000/svg" xmlns:xlink="http://www.w3.org/1999/xlink" version="1.1" width="1280" height="1024" viewBox="390 225 500 500" xml:space="preserve">
<desc>Created with Fabric.js 5.3.0</desc>
<defs>
</defs>
<g transform="matrix(1 0 0 1 640 512)" id="background-logo"  >
<rect style="stroke: none; stroke-width: 0; stroke-dasharray: none; stroke-linecap: butt; stroke-dashoffset: 0; stroke-linejoin: miter; stroke-miterlimit: 4; fill: rgb(255,255,255); fill-opacity: 0; fill-rule: nonzero; opacity: 1;"  paint-order="stroke"  x="-640" y="-512" rx="0" ry="0" width="1280" height="1024" />
</g>
<g transform="matrix(1.9211538461538462 0 0 1.9211538461538462 640 399.2856682266745)" id="logo-logo"  >
<g style=""  paint-order="stroke"   >
		<g transform="matrix(0.11139258400722325 0 0 -0.11139258400722325 -0.0054582366164481755 54.46122132279197)"  >
<path style="stroke: none; stroke-width: 1; stroke-dasharray: none; stroke-linecap: butt; stroke-dashoffset: 0; stroke-linejoin: miter; stroke-miterlimit: 4; fill: rgb(3,100,117); fill-rule: nonzero; opacity: 1;"  paint-order="stroke"  transform=" translate(-1624.9499999999998, -811.0925485278237)" d="M 1417.08 870.488 C 1522.6699999999998 733.34 1687.6599999999999 692.191 1832.82 870.488 C 1709.6499999999999 815.609 1557.92 788.1800000000001 1417.08 870.488" stroke-linecap="round" />
</g>
		<g transform="matrix(0.11139258400722325 0 0 -0.11139258400722325 -87.3675428811294 13.54478125235832)"  >
<path style="stroke: none; stroke-width: 1; stroke-dasharray: none; stroke-linecap: butt; stroke-dashoffset: 0; stroke-linejoin: miter; stroke-miterlimit: 4; fill: rgb(101,210,228); fill-rule: nonzero; opacity: 1;"  paint-order="stroke"  transform=" translate(-840.678, -1178.41)" d="M 722.668 1227.73 L 722.668 1129.3600000000001 C 722.668 999.6720000000001 828.746 893.3200000000002 958.688 893.3200000000002 L 958.688 1463.5 C 828.746 1463.5 722.668 1357.42 722.668 1227.73" stroke-linecap="round" />
</g>
		<g transform="matrix(0.11139258400722325 0 0 -0.11139258400722325 87.36642895528928 13.54478125235832)"  >
<path style="stroke: none; stroke-width: 1; stroke-dasharray: none; stroke-linecap: butt; stroke-dashoffset: 0; stroke-linejoin: miter; stroke-miterlimit: 4; fill: rgb(101,210,228); fill-rule: nonzero; opacity: 1;"  paint-order="stroke"  transform=" translate(-2409.31, -1178.41)" d="M 2291.29 1463.5 L 2291.29 893.32 C 2420.98 893.32 2527.33 999.672 2527.33 1129.3600000000001 L 2527.33 1227.73 C 2527.33 1357.42 2420.98 1463.5 2291.29 1463.5" stroke-linecap="round" />
</g>
		<g transform="matrix(0.11139258400722325 0 0 -0.11139258400722325 -0.0010025332561554023 2.842171e-14)"  >
<path style="stroke: none; stroke-width: 1; stroke-dasharray: none; stroke-linecap: butt; stroke-dashoffset: 0; stroke-linejoin: miter; stroke-miterlimit: 4; fill: rgb(3,100,117); fill-rule: nonzero; opacity: 1;"  paint-order="stroke"  transform=" translate(-1624.9899999999998, -1300.005)" d="M 1893.5 1862.35 L 1356.48 1862.35 C 1166.38 1862.35 1011.72 1707.6999999999998 1011.72 1517.59 L 1011.72 866.539 C 1011.72 795.469 1069.55 737.66 1140.6200000000001 737.66 L 1140.6200000000001 764.16 L 1142.74 764.16 L 1142.74 1484.4499999999998 C 1142.74 1575.6699999999998 1252.8 1621.2899999999997 1317.23 1556.85 L 1624.8600000000001 1249.2199999999998 L 1932.75 1556.85 C 1997.2 1621.29 2107.25 1575.6699999999998 2107.25 1484.4499999999998 L 2107.25 764.16 L 2109.12 764.16 L 2109.12 737.66 C 2180.3199999999997 737.66 2238.2599999999998 795.4689999999999 2238.2599999999998 866.539 L 2238.2599999999998 1517.5900000000001 C 2238.2599999999998 1707.7000000000003 2083.6 1862.3500000000001 1893.4999999999998 1862.3500000000001" stroke-linecap="round" />
</g>
		<g transform="matrix(0.11139258400722325 0 0 -0.11139258400722325 -24.744080255860638 23.34510079331389)"  >
<path style="stroke: none; stroke-width: 1; stroke-dasharray: none; stroke-linecap: butt; stroke-dashoffset: 0; stroke-linejoin: miter; stroke-miterlimit: 4; fill: rgb(3,100,117); fill-rule: nonzero; opacity: 1;"  paint-order="stroke"  transform=" translate(-1402.8649999999998, -1090.43)" d="M 1490.84 1090.41 C 1490.84 1139.0400000000002 1451.4499999999998 1178.4 1402.8799999999999 1178.4 C 1354.27 1178.4 1314.8899999999999 1139.0400000000002 1314.8899999999999 1090.41 C 1314.8899999999999 1041.8400000000001 1354.27 1002.46 1402.8799999999999 1002.46 C 1451.4499999999998 1002.46 1490.84 1041.8400000000001 1490.84 1090.41" stroke-linecap="round" />
</g>
		<g transform="matrix(0.11139258400722325 0 0 -0.11139258400722325 24.73929037474818 23.34510079331389)"  >
<path style="stroke: none; stroke-width: 1; stroke-dasharray: none; stroke-linecap: butt; stroke-dashoffset: 0; stroke-linejoin: miter; stroke-miterlimit: 4; fill: rgb(3,100,117); fill-rule: nonzero; opacity: 1;"  paint-order="stroke"  transform=" translate(-1847.09, -1090.43)" d="M 1847.09 1178.4 C 1798.5 1178.4 1759.12 1139.0400000000002 1759.12 1090.41 C 1759.12 1041.8400000000001 1798.5 1002.46 1847.09 1002.46 C 1895.6799999999998 1002.46 1935.06 1041.8400000000001 1935.06 1090.41 C 1935.06 1139.0400000000002 1895.6799999999998 1178.4 1847.09 1178.4" stroke-linecap="round" />
</g>
</g>
</g>
<g transform="matrix(1.9211538461538462 0 0 1.9211538461538462 642.3534134615385 619.5095115549789)" id="text-logo"  >
<g style=""  paint-order="stroke"   >
		<g transform="matrix(1 0 0 1 0 0)" id="text-logo-path-0"  >
<path style="stroke: none; stroke-width: 0; stroke-dasharray: none; stroke-linecap: butt; stroke-dashoffset: 0; stroke-linejoin: miter; stroke-miterlimit: 4; fill: rgb(3,100,117); fill-rule: nonzero; opacity: 1;"  paint-order="stroke"  transform=" translate(-87.85, 13.125)" d="M 23.95 -9.65 L 23.95 -9.65 Q 23.95 -4.9 20.73 -2.2 Q 17.5 0.5 11.75 0.5 L 11.75 0.5 Q 6 0.5 2.3 -1.35 L 2.3 -1.35 L 2.3 -6.45 Q 4.3 -5.55 6.85 -4.83 Q 9.4 -4.1 12 -4.1 L 12 -4.1 Q 15.25 -4.1 16.88 -5.5 Q 18.5 -6.9 18.5 -9.25 L 18.5 -9.25 Q 18.5 -10.9 17.78 -12.03 Q 17.05 -13.15 15.43 -14.13 Q 13.8 -15.1 11.1 -16.15 L 11.1 -16.15 Q 8.55 -17.2 6.68 -18.55 Q 4.8 -19.9 3.75 -21.9 Q 2.7 -23.9 2.7 -26.8 L 2.7 -26.8 Q 2.7 -31.2 5.78 -33.7 Q 8.85 -36.2 13.85 -36.2 L 13.85 -36.2 Q 16.6 -36.2 19 -35.6 Q 21.4 -35 23.45 -34.05 L 23.45 -34.05 L 21.7 -29.6 Q 19.8 -30.45 17.75 -31 Q 15.7 -31.55 13.7 -31.55 L 13.7 -31.55 Q 10.95 -31.55 9.58 -30.25 Q 8.2 -28.95 8.2 -26.85 L 8.2 -26.85 Q 8.2 -25.2 8.9 -24.1 Q 9.6 -23 11.15 -22.08 Q 12.7 -21.15 15.25 -20.05 L 15.25 -20.05 Q 18.05 -18.85 20 -17.53 Q 21.95 -16.2 22.95 -14.33 Q 23.95 -12.45 23.95 -9.65 Z M 63.45 -27.45 L 63.45 -27.45 Q 67.75 -27.45 69.93 -25.1 Q 72.1 -22.75 72.1 -17.55 L 72.1 -17.55 L 72.1 0 L 66.7 0 L 66.7 -16.85 Q 66.7 -23.1 62.1 -23.1 L 62.1 -23.1 Q 58.85 -23.1 57.48 -20.88 Q 56.1 -18.65 56.1 -14.5 L 56.1 -14.5 L 56.1 0 L 50.65 0 L 50.65 -16.85 Q 50.65 -23.1 46.1 -23.1 L 46.1 -23.1 Q 42.7 -23.1 41.4 -20.65 Q 40.1 -18.2 40.1 -13.6 L 40.1 -13.6 L 40.1 0 L 34.7 0 L 34.7 -26.95 L 38.95 -26.95 L 39.75 -23.35 L 40 -23.35 Q 41.1 -25.45 43.13 -26.45 Q 45.15 -27.45 47.5 -27.45 L 47.5 -27.45 Q 53.3 -27.45 55.2 -23.1 L 55.2 -23.1 L 55.55 -23.1 Q 56.75 -25.3 58.88 -26.38 Q 61 -27.45 63.45 -27.45 Z M 101.5 -7.6 L 101.5 -7.6 Q 101.5 -3.6 98.83 -1.55 Q 96.15 0.5 91.15 0.5 L 91.15 0.5 Q 88.45 0.5 86.5 0.1 Q 84.55 -0.3 82.9 -1.15 L 82.9 -1.15 L 82.9 -5.8 Q 84.65 -4.95 86.9 -4.28 Q 89.15 -3.6 91.2 -3.6 L 91.2 -3.6 Q 93.85 -3.6 95.05 -4.55 Q 96.25 -5.5 96.25 -7.1 L 96.25 -7.1 Q 96.25 -8 95.78 -8.72 Q 95.3 -9.45 94 -10.23 Q 92.7 -11 90.25 -12 L 90.25 -12 Q 87.85 -13 86.2 -14.05 Q 84.55 -15.1 83.7 -16.55 Q 82.85 -18 82.85 -20.2 L 82.85 -20.2 Q 82.85 -23.7 85.55 -25.58 Q 88.25 -27.45 92.65 -27.45 L 92.65 -27.45 Q 94.95 -27.45 97.03 -26.95 Q 99.1 -26.45 101.05 -25.55 L 101.05 -25.55 L 99.4 -21.5 Q 97.65 -22.25 95.9 -22.78 Q 94.15 -23.3 92.45 -23.3 L 92.45 -23.3 Q 88.1 -23.3 88.1 -20.45 L 88.1 -20.45 Q 88.1 -19.5 88.63 -18.78 Q 89.15 -18.05 90.47 -17.35 Q 91.8 -16.65 94.15 -15.7 L 94.15 -15.7 Q 96.5 -14.75 98.15 -13.73 Q 99.8 -12.7 100.65 -11.25 Q 101.5 -9.8 101.5 -7.6 Z M 114.9 -37.2 L 114.9 -37.2 Q 116.15 -37.2 117.05 -36.5 Q 117.95 -35.8 117.95 -34.15 L 117.95 -34.15 Q 117.95 -32.55 117.05 -31.83 Q 116.15 -31.1 114.9 -31.1 L 114.9 -31.1 Q 113.65 -31.1 112.75 -31.83 Q 111.85 -32.55 111.85 -34.15 L 111.85 -34.15 Q 111.85 -35.8 112.75 -36.5 Q 113.65 -37.2 114.9 -37.2 Z M 112.15 -26.95 L 117.6 -26.95 L 117.6 0 L 112.15 0 L 112.15 -26.95 Z M 142.8 -26.95 L 142.8 -22.9 L 136.65 -22.9 L 136.65 0 L 131.2 0 L 131.2 -22.9 L 127.05 -22.9 L 127.05 -25.4 L 131.2 -27.05 L 131.2 -28.75 Q 131.2 -33.9 133.4 -36.08 Q 135.6 -38.25 139.65 -38.25 L 139.65 -38.25 Q 141.35 -38.25 142.75 -37.95 Q 144.15 -37.65 145.2 -37.3 L 145.2 -37.3 L 143.85 -33.25 Q 143.1 -33.5 142.15 -33.73 Q 141.2 -33.95 140.15 -33.95 L 140.15 -33.95 Q 136.65 -33.95 136.65 -28.7 L 136.65 -28.7 L 136.65 -26.95 L 142.8 -26.95 Z M 158.35 0 L 148.2 -26.95 L 154 -26.95 L 159.15 -11.65 Q 160.35 -8.15 160.8 -5.1 L 160.8 -5.1 L 160.95 -5.1 Q 161.2 -6.4 161.65 -8.15 Q 162.1 -9.9 162.65 -11.7 L 162.65 -11.7 L 167.55 -26.95 L 173.4 -26.95 L 162.6 3.65 Q 161.2 7.55 158.87 9.78 Q 156.55 12 152.65 12 L 152.65 12 Q 151.55 12 150.67 11.88 Q 149.8 11.75 149.15 11.6 L 149.15 11.6 L 149.15 7.4 Q 149.65 7.5 150.4 7.6 Q 151.15 7.7 151.95 7.7 L 151.95 7.7 Q 154.15 7.7 155.4 6.38 Q 156.65 5.05 157.35 2.9 L 157.35 2.9 L 158.35 0 Z" stroke-linecap="round" />
</g>
</g>
</g>
</svg>